<?xml version="1.0" encoding="UTF-8"?>
    <svg width="80" height="30" id="Layer_1" xmlns="http://www.w3.org/2000/svg" viewBox="0 0 26 8.82">
        <defs>
            <style>.cls-1{fill:#22202e;}</style>
        </defs>
        <path class="cls-1" d="m.73,8.15L3.76,1.44h.99l3.04,6.7h-.8l-.9-1.97h-3.68l-.9,1.97h-.78Zm1.97-2.61h3.1l-1.16-2.54-.37-.87h-.06l-.36.87-1.15,2.54Z"/>
        <path class="cls-1" d="m9.43,8.05l-2.2-4.61h.72l1.87,3.96h.06l1.86-3.96h.72l-2.2,4.61h-.81Z"/>
        <path class="cls-1" d="m14.97,5.79c0-1.37.98-2.36,2.46-2.36s2.47.98,2.47,2.36-.98,2.36-2.47,2.36-2.46-.98-2.46-2.36Zm4.28,0c0-1.09-.58-1.77-1.82-1.77s-1.81.68-1.81,1.77.57,1.77,1.81,1.77,1.82-.67,1.82-1.77Z"/>
        <path class="cls-1" d="m20.72,8.15V3.53h.6v1.45h.05c.16-.79.81-1.54,1.96-1.54,1.3,0,1.94.93,1.94,2.02v2.69h-.66v-2.6c0-.95-.46-1.5-1.51-1.5-1.12,0-1.71.68-1.71,1.87v2.23h-.66Z"/>
        <g>
            <rect class="cls-1" x="13.26" y="3.43" width=".71" height="4.72"/>
            <path class="cls-1" d="m12.52,1.29c.35.14.69.27,1.04.41.15-.22.29-.44.44-.66.3-.13.61-.25.91-.38-.43.66-.87,1.32-1.3,1.97-.36-.45-.72-.9-1.09-1.35Z"/>
        </g>
    </svg>